<svg width="24" height="24" viewBox="0 0 24 24" fill="none" xmlns="http://www.w3.org/2000/svg">
<path d="M16.28 14.34C16.4679 14.1616 16.6175 13.9468 16.7198 13.7087C16.822 13.4705 16.8748 13.2141 16.8748 12.955C16.8748 12.6959 16.822 12.4395 16.7198 12.2013C16.6175 11.9632 16.4679 11.7484 16.28 11.57C15.8954 11.2049 15.3853 11.0014 14.855 11.0014C14.3247 11.0014 13.8146 11.2049 13.43 11.57L12 13L10.57 11.57C10.1854 11.2049 9.67529 11.0014 9.145 11.0014C8.6147 11.0014 8.10463 11.2049 7.72 11.57C7.53209 11.7484 7.38247 11.9632 7.28022 12.2013C7.17797 12.4395 7.12524 12.6959 7.12524 12.955C7.12524 13.2141 7.17797 13.4705 7.28022 13.7087C7.38247 13.9468 7.53209 14.1616 7.72 14.34L12 18.5L16.28 14.34ZM12 9.5C12.5304 9.5 13.0391 9.28929 13.4142 8.91421C13.7893 8.53914 14 8.03043 14 7.5C14 6.96957 13.7893 6.46086 13.4142 6.08579C13.0391 5.71071 12.5304 5.5 12 5.5C11.4696 5.5 10.9609 5.71071 10.5858 6.08579C10.2107 6.46086 10 6.96957 10 7.5C10 8.03043 10.2107 8.53914 10.5858 8.91421C10.9609 9.28929 11.4696 9.5 12 9.5Z" stroke="white" stroke-linecap="round" stroke-linejoin="round"/>
</svg>
