<svg width="16" height="17" viewBox="0 0 16 17" fill="none" xmlns="http://www.w3.org/2000/svg">
<path d="M8.0001 5.16555C8.2713 5.16555 8.53139 5.06018 8.72316 4.87262C8.91492 4.68507 9.02266 4.43069 9.02266 4.16544C9.02266 3.90019 8.91492 3.64581 8.72316 3.45826C8.53139 3.2707 8.2713 3.16533 8.0001 3.16533C7.72891 3.16533 7.46882 3.2707 7.27705 3.45826C7.08529 3.64581 6.97755 3.90019 6.97755 4.16544C6.97755 4.43069 7.08529 4.68507 7.27705 4.87262C7.46882 5.06018 7.72891 5.16555 8.0001 5.16555ZM8.60682 0.695064C8.43106 0.568357 8.21845 0.5 8.0001 0.5C7.78176 0.5 7.56915 0.568357 7.39339 0.695064L0.917228 5.36557C0.123728 5.9383 0.537521 7.17043 1.52394 7.17043H1.86479V11.999C1.46093 12.1635 1.11593 12.4414 0.873299 12.7975C0.630664 13.1536 0.501256 13.5719 0.50139 13.9998V14.9999C0.50139 15.276 0.730442 15.5 1.01267 15.5H14.9875C15.1231 15.5 15.2532 15.4473 15.3491 15.3535C15.445 15.2598 15.4988 15.1326 15.4988 14.9999V13.9998C15.4988 13.572 15.3693 13.1538 15.1267 12.7979C14.8841 12.4419 14.5392 12.1642 14.1354 11.9996V7.17043H14.4756C15.4627 7.17043 15.8765 5.9383 15.0823 5.36557L8.60682 0.695064ZM2.88735 11.8329V7.17043H4.5916V11.8329H2.88735ZM13.1129 7.17043V11.8329H11.4086V7.17043H13.1129ZM10.3861 7.17043V11.8329H8.51138V7.17043H10.3861ZM7.48883 7.17043V11.8329H5.61415V7.17043H7.48883ZM1.52394 6.17032L8.0001 1.49982L14.4756 6.17032H1.52394ZM1.52394 13.9998C1.52394 13.3558 2.0584 12.833 2.71692 12.833H13.2833C13.9418 12.833 14.4763 13.3558 14.4763 13.9998V14.4999H1.52394V13.9998Z" fill="black"/>
</svg>
