<svg width="16" height="17" viewBox="0 0 16 17" fill="none" xmlns="http://www.w3.org/2000/svg">
<path d="M7.33301 11.8533L13.333 14.5C12.9623 14.1293 12.3263 12.9287 12.7437 11.0893C13.265 8.79 14.2437 6.478 10.6237 5.20933C9.35501 1.58933 7.04301 2.568 4.74367 3.08933C2.90367 3.50667 1.70367 2.87067 1.33301 2.5L3.99967 8.54933M5.33301 10.5H3.33301L1.33301 12.5H3.33301V14.5L5.33301 12.5V10.5ZM5.33301 10.5L13.333 2.5M11.333 2.5H12.6663C12.9803 2.5 13.1377 2.5 13.2357 2.59733C13.333 2.69533 13.333 2.85333 13.333 3.16667V4.5" stroke="black" stroke-linecap="round" stroke-linejoin="round"/>
</svg>
