<svg width="16" height="17" viewBox="0 0 16 17" fill="none" xmlns="http://www.w3.org/2000/svg">
<path d="M12.6526 7.78488C12.7717 7.78957 12.8486 7.68144 12.9632 7.71425C13.1398 7.76457 13.1407 7.98925 13.0882 8.07207C13.0464 8.12921 12.9878 8.17193 12.9207 8.19432C12.8535 8.21672 12.781 8.21768 12.7132 8.19707C12.4632 8.128 12.4507 7.82738 12.4632 7.748C12.5224 7.77556 12.5874 7.78822 12.6526 7.78488ZM6.13949 7.48644V9.27425H7.86668V7.48644H6.13949ZM0.557617 7.48644V9.27425H2.19449L2.74605 7.48644H0.558555H0.557617ZM3.71605 9.27425H4.63262V7.48644H4.26762L3.71605 9.27425ZM9.3723 7.48644V9.27425H10.7026L10.2873 7.48644H9.3748H9.3723ZM3.22043 11.4258C2.90406 11.4258 2.5948 11.5197 2.33175 11.6954C2.0687 11.8712 1.86368 12.1211 1.74262 12.4133C1.62155 12.7056 1.58987 13.0273 1.65159 13.3376C1.7133 13.6479 1.86564 13.9329 2.08934 14.1566C2.31306 14.3803 2.59808 14.5326 2.90838 14.5943C3.21867 14.6561 3.5403 14.6244 3.83259 14.5033C4.12488 14.3822 4.37471 14.1772 4.55049 13.9142C4.72626 13.6511 4.82009 13.3419 4.82012 13.0255C4.82012 12.142 4.1039 11.4258 3.22043 11.4258ZM10.9761 11.4258C10.6597 11.4258 10.3504 11.5197 10.0874 11.6954C9.82433 11.8712 9.61931 12.1211 9.49824 12.4133C9.37718 12.7056 9.3455 13.0273 9.40721 13.3376C9.46893 13.6479 9.62126 13.9329 9.84496 14.1566C10.0687 14.3803 10.3537 14.5326 10.664 14.5943C10.9743 14.6561 11.2959 14.6244 11.5882 14.5033C11.8805 14.3822 12.1303 14.1772 12.3061 13.9142C12.4819 13.6511 12.5757 13.3419 12.5757 13.0255C12.5757 12.142 11.8595 11.4258 10.9761 11.4258ZM2.83543 3.36832H11.3614V2.37488H2.83543V3.36832ZM4.78105 11.6211C5.03528 11.903 5.20811 12.2486 5.28105 12.6211H8.91605C8.989 12.2486 9.16183 11.903 9.41605 11.6211H4.78105ZM13.2632 11.6211H12.5357C12.79 11.903 12.9628 12.2486 13.0357 12.6211H13.2614V11.6211H13.2632ZM0.93543 11.6211V12.6211H1.16105C1.234 12.2486 1.40683 11.903 1.66105 11.6211H0.934492H0.93543ZM4.86105 3.86832H4.38605L2.1098 11.2433C2.28038 11.1364 2.46553 11.0547 2.65949 11.0008L4.86105 3.86832ZM10.4273 3.86832H9.96137L11.6248 11.0286C11.8112 11.0891 11.9881 11.1755 12.1504 11.2852L10.4273 3.86832ZM5.13262 3.87503V9.61925H5.63918V3.87503H5.13262ZM8.36637 3.87503V9.61925H8.8748V3.87503H8.36637ZM15.1511 8.55894L15.2136 10.2464L14.6451 10.3814L14.0551 10.1158L13.8201 9.27207L13.2517 9.26925C13.2517 9.26925 14.0642 8.95832 14.0898 8.1255C14.1048 7.61144 13.7817 6.91957 13.0329 6.89988C12.5329 6.88675 11.8886 7.41144 12.1086 8.01519C12.1664 8.17332 12.2648 8.48582 12.6507 8.56488C12.9923 8.63488 13.4451 8.45769 13.4898 8.00082C13.5211 7.67738 13.2501 7.14207 12.6267 7.40707C12.7445 7.32053 12.8868 7.27379 13.0329 7.27363C13.2476 7.2755 13.5232 7.39207 13.6673 7.77144C13.7842 8.07957 13.7242 8.54832 13.2651 8.84144C13.0914 8.94786 12.8928 9.00694 12.6891 9.01281C12.4854 9.01867 12.2838 8.97112 12.1042 8.87488L11.6217 6.79675C12.0667 6.0155 13.7111 5.38675 14.8376 6.75175C15.0157 6.96738 15.442 7.71863 15.442 7.71863L15.1511 8.55894ZM14.9536 8.37707C15.0161 8.34832 15.0129 8.2155 14.9498 8.07988C14.8867 7.94425 14.5979 7.79519 14.5367 7.82394C14.4754 7.85269 14.4773 7.9855 14.5407 8.12113C14.6042 8.25675 14.8911 8.40582 14.9523 8.37707H14.9536ZM15.0036 9.91988C15.0036 9.81707 14.8473 9.60738 14.8064 9.60738C14.7654 9.60738 14.7342 9.69082 14.7342 9.79488C14.7342 9.89894 14.8904 10.1074 14.9314 10.1074C14.9723 10.1074 15.0036 10.0239 15.0036 9.91988Z" fill="black"/>
</svg>
