<svg width="16" height="17" viewBox="0 0 16 17" fill="none" xmlns="http://www.w3.org/2000/svg">
<path d="M5.52596 1.09998L4.99971 1.29866C5.0685 1.48114 5.1331 1.66517 5.19346 1.8506C5.3917 1.85177 5.58992 1.85606 5.78802 1.86348C5.70834 1.60641 5.62094 1.35179 5.52596 1.09998ZM10.8925 1.97123L10.3589 2.14901C10.4347 2.37732 10.502 2.6084 10.5605 2.84176C10.7542 2.83548 10.9631 2.83519 11.1396 2.83913C11.0695 2.54694 10.9878 2.25713 10.8925 1.97123ZM5.11256 2.42357C3.99734 2.42107 2.85556 2.51341 1.92218 2.70629C2.90662 4.67576 2.58968 6.68054 2.29565 8.53057C2.50377 8.42169 2.74249 8.31729 3.01971 8.22044C3.66659 7.99451 4.47915 7.80535 5.31787 7.71138C6.15662 7.61744 7.01977 7.61741 7.77193 7.78701C7.84671 7.80388 7.92043 7.82285 7.99312 7.84348C8.13871 6.47873 8.11637 5.0741 7.37037 3.78854L7.20256 3.49935C7.67096 3.3186 8.18906 3.16376 8.61071 3.07279C8.52939 2.96765 8.44567 2.8644 8.35962 2.7631C7.51596 2.54294 6.33234 2.42629 5.11256 2.42357ZM10.926 3.39904C10.8613 3.3987 10.7966 3.39901 10.7319 3.39998C9.78487 3.41466 8.79902 3.56538 8.01724 3.80794C8.80359 5.38491 8.67912 7.06582 8.47109 8.56644C8.62352 8.49019 8.78818 8.41807 8.97484 8.34801C9.48887 8.1551 10.1201 8.00044 10.7662 7.92988C11.4124 7.85935 12.0724 7.87113 12.6477 8.03257C13.0081 8.13369 13.3419 8.30135 13.599 8.54898C13.7886 7.93835 13.9985 7.36773 14.0721 6.74973C14.1664 5.95926 14.0548 5.07438 13.3789 3.85966C12.8001 3.56054 11.8926 3.40416 10.926 3.39904H10.926ZM1.08543 8.08688C1.03609 8.71235 0.857431 9.27238 0.827618 9.84491C0.803743 10.3325 0.877837 10.8859 1.04318 11.4324C1.33271 12.3891 1.90662 13.3477 2.80093 13.7811L1.29918 15.4894L1.72168 15.8609L3.4924 13.8465C3.6944 13.8797 3.92009 13.9089 4.16643 13.9342L2.79915 15.4894L3.22165 15.8608L4.86402 13.9925C5.09065 14.0077 5.33187 14.0202 5.58131 14.0309L4.29912 15.4894L4.72162 15.8608L6.30843 14.0558C6.62381 14.0638 6.95177 14.0692 7.29102 14.0719L6.0104 15.5287L6.43287 15.9001L8.03827 14.0739C8.29052 14.0738 8.56221 14.0724 8.79121 14.0717L7.51037 15.5287L7.93287 15.9001L9.54281 14.0688C9.80074 14.0676 10.0536 14.0659 10.2988 14.0631L9.01037 15.5287L9.43287 15.9001L11.0603 14.0488C12.6632 14.007 13.9926 13.8768 15.1763 13.4371L15.0996 12.8884C14.0308 12.8494 13.4852 11.9569 13.7434 11.1865C13.9196 11.0422 14.0752 10.8755 14.202 10.6909C14.5497 10.1847 14.667 9.51179 14.3341 8.89476L13.8391 9.16185C14.0697 9.58929 13.9957 9.99779 13.7383 10.3725C13.6152 10.5519 13.4461 10.7153 13.2518 10.8489C9.87537 11.4388 4.02756 12.2673 1.60646 11.3485C1.47462 10.8674 1.37087 10.3288 1.38946 9.87235L1.38952 9.87179L2.18965 9.37448L1.08543 8.08688ZM6.41977 8.21188C6.24059 8.21145 6.06144 8.21666 5.88259 8.22751C5.84896 9.17563 5.78765 10.3114 5.74315 11.2631L6.30502 11.2269C6.34971 10.2718 6.41337 9.18385 6.44768 8.21223C6.43834 8.21216 6.42912 8.21191 6.41977 8.21185V8.21188ZM11.4358 8.45288C11.248 8.45438 11.0561 8.46551 10.8641 8.48538C10.8067 9.31541 10.7348 10.1902 10.7018 10.7987L11.2635 10.7041C11.2964 10.0967 11.3751 9.32419 11.4358 8.45288ZM12.102 11.6585C12.5765 11.6747 13.2533 12.2251 13.2445 12.3775C13.2354 12.5349 12.5851 13.2406 12.1411 13.2507C11.6971 13.2609 10.9278 12.7437 10.9239 12.6035C10.9199 12.4634 11.5814 11.6785 12.0567 11.6586C12.0716 11.658 12.0867 11.658 12.1021 11.6585H12.102ZM12.0783 12.0146C11.8365 12.0146 11.6405 12.2107 11.6405 12.4525C11.6405 12.6944 11.8365 12.8904 12.0783 12.8904C12.3202 12.8904 12.5163 12.6944 12.5163 12.4525C12.5163 12.2106 12.3202 12.0146 12.0783 12.0146Z" fill="black"/>
</svg>
