<svg width="32" height="32" viewBox="0 0 32 32" fill="none" xmlns="http://www.w3.org/2000/svg">
<path d="M9.92627 10.074C14.5355 8.4942 17.1689 8.4942 21.7781 10.074M9.92627 21.9259C14.0744 23.5058 17.63 23.5058 21.7781 21.9259" stroke="white" stroke-width="1.5" stroke-linecap="round" stroke-linejoin="round"/>
<path d="M12.1269 22.6667C12.1269 24 9.61435 26.6667 8.96843 26.6667C7.03302 26.6667 5.3145 24.4445 4.45406 22.6667C3.59361 20.4445 3.80932 14.8895 6.38828 7.33397C8.26798 5.98049 10.1572 5.54671 12.1269 5.33337L13.4816 8.88893M19.577 22.6667C19.577 24 22.0896 26.6667 22.7355 26.6667C24.6709 26.6667 26.3895 24.4445 27.2499 22.6667C28.1104 20.4445 27.8947 14.8895 25.3157 7.33397C23.436 5.98049 21.5468 5.54671 19.577 5.33337L18.2224 8.88893M10.5305 16H10.5187M21.1853 16H21.1735" stroke="white" stroke-width="1.5" stroke-linecap="round" stroke-linejoin="round"/>
</svg>
