<svg width="16" height="17" viewBox="0 0 16 17" fill="none" xmlns="http://www.w3.org/2000/svg">
<path d="M6.96185 2.52374C7.00639 2.52367 7.05074 2.52955 7.09373 2.54124C7.35779 2.6128 7.52747 2.88967 7.54904 3.22874L6.74341 3.41624L7.42747 3.84936C7.27341 4.17655 7.00029 4.38999 6.72935 4.38999C6.68481 4.39005 6.64046 4.38417 6.59748 4.37249C6.23248 4.27374 6.04779 3.78342 6.18498 3.27874C6.30591 2.83311 6.63591 2.52374 6.96185 2.52374ZM6.32779 2.22874C6.41654 2.16778 6.51301 2.11891 6.61466 2.08342C6.44373 1.95124 6.23779 1.8078 6.11779 1.77936C5.24904 1.57467 5.23216 2.85467 4.58404 2.25905C5.1081 3.21405 5.68904 1.87842 6.32779 2.22905V2.22874ZM8.01529 5.83999C7.81413 5.39499 7.29004 5.19758 6.84529 5.39936L7.57466 7.0103C8.01985 6.80911 8.21748 6.28499 8.01591 5.83999H8.01529ZM5.84279 6.93374L5.16404 6.72561L3.25966 7.69436L3.48341 8.13405L5.84279 6.93374ZM6.77654 4.88967H6.72872C6.6401 4.88974 6.55185 4.87811 6.46623 4.85499C6.29803 4.80879 6.1445 4.72024 6.02029 4.5978L5.41123 6.27842L6.90154 6.73561L6.56779 5.99842L6.13029 5.91592L6.4331 5.69717L6.18279 5.14999C6.18279 5.14999 6.73029 4.9053 6.77654 4.88967ZM2.63123 9.35842C0.608725 7.9153 3.94373 6.31717 1.16091 6.04999C3.0131 6.8803 -0.383775 7.4503 0.8406 9.10342C1.07466 9.41936 1.92685 9.88311 2.39185 10.1209C2.42989 9.85552 2.51117 9.59815 2.63248 9.35905L2.63123 9.35842ZM6.78091 7.38155L6.8531 7.24342L6.53154 7.14499L4.97185 7.93842L7.11716 8.76561L5.60654 10.0184L6.87622 10.8481L6.6731 10.1003L8.09216 8.56905L6.78091 7.38155ZM7.20998 4.81905C7.36304 4.81914 7.51498 4.84467 7.65966 4.89467L8.9656 4.23155C8.59857 4.15895 8.22536 4.12222 7.85122 4.12186C7.67373 4.46561 7.40279 4.71561 7.09591 4.8253C7.13373 4.82249 7.17185 4.8203 7.20998 4.8203V4.81905ZM12.8975 8.70561H12.7678C12.6 8.70561 12.4128 8.69905 12.2125 8.68592L12.6081 9.24842L13.3893 9.01936C13.3893 9.01936 13.354 8.87717 13.3037 8.66842C13.1691 8.69195 13.0329 8.7048 12.8962 8.70686L12.8975 8.70561ZM8.55466 7.25655C8.98716 6.54124 10.0159 5.17124 11.5547 5.17124C12.0794 5.17124 12.6637 5.33061 13.3047 5.72936L12.9609 6.34905L12.9675 7.03436C12.954 7.13592 13.0737 7.69061 13.1887 8.18749C12.9809 8.22342 12.47 8.21874 11.8393 8.15624L11.6618 7.90311C11.1568 7.60467 10.7634 7.41061 10.7634 7.41061C10.7634 7.41061 10.7919 7.65342 10.8015 8.01155C10.0809 7.88092 9.33747 7.67811 8.77529 7.38249C8.69971 7.34418 8.62608 7.30215 8.55466 7.25655ZM12.3078 6.68217C12.3078 6.82836 12.4845 6.90155 12.5879 6.79817C12.6912 6.69483 12.618 6.51811 12.4718 6.51811C12.4283 6.51811 12.3866 6.5354 12.3558 6.56616C12.325 6.59693 12.3078 6.63866 12.3078 6.68217H12.3078ZM8.16279 5.2003C8.28472 5.31575 8.38458 5.45246 8.45747 5.60374L15.4328 1.74749V1.45374L8.16279 5.2003ZM10.5431 10.0165C10.7194 9.55655 10.7831 8.99842 10.7993 8.51655C10.2798 8.42874 9.76785 8.30075 9.2681 8.13374C8.9395 8.02477 8.62385 7.88005 8.32685 7.70217L8.75747 10.7228L4.72622 11.2584L4.40154 8.53811C4.26841 8.59342 4.13748 8.65186 4.00966 8.71436C2.17185 9.61061 3.08904 11.72 3.08904 11.72L2.30779 13.2578L3.24873 14.9562V15.544H4.3081L3.81623 14.8306L3.36373 13.1878L4.89091 11.7378C5.76248 11.7772 8.09216 11.3787 9.09466 11.2065L11.6884 11.3487L12.4034 12.264L11.8769 12.6562L12.8003 13.0906L13.0931 12.514L12.4922 10.974L10.5431 10.0165ZM8.94248 5.91905L8.58904 6.0978C8.59477 6.1746 8.59404 6.25174 8.58685 6.32842C8.69497 6.19342 8.81279 6.05499 8.94248 5.91905ZM9.93279 13.1665L9.77654 11.7465L9.12372 11.7109C8.92997 11.744 8.71404 11.7803 8.48497 11.8181L9.1556 13.31L9.7081 15.015L9.68841 15.5462H10.6781L10.3765 14.989L9.93279 13.1665ZM5.54591 13.7744L6.6956 12.0925C6.02904 12.1847 5.09216 12.2509 5.08716 12.2509L5.17873 12.4887L4.58185 13.7972L6.0506 15.1744V15.5415H6.94591L6.59123 15.1378L5.54591 13.7744Z" fill="black"/>
</svg>
