<svg width="24" height="24" viewBox="0 0 24 24" fill="none" xmlns="http://www.w3.org/2000/svg">
<path d="M6.11758 5.73789C6.27064 5.58557 6.47821 5.5 6.69464 5.5C6.91107 5.5 7.11864 5.58557 7.2717 5.73789L9.88928 8.34361L8.73516 9.4925L8.32706 9.08625V10.3749H5.06222V9.08625L4.65412 9.4925L3.5 8.34361L6.11758 5.73789ZM12.5771 9.80045C12.424 9.64812 12.2164 9.56255 12 9.56255C11.7836 9.56255 11.576 9.64812 11.4229 9.80045L6.35673 14.8437L7.51085 15.9926L8.32706 15.1801V18.5H10.7757V16.4687C10.7757 16.1455 10.9047 15.8355 11.1343 15.6069C11.3639 15.3784 11.6753 15.25 12 15.25C12.3247 15.25 12.6361 15.3784 12.8657 15.6069C13.0953 15.8355 13.2243 16.1455 13.2243 16.4687V18.5H15.6729V15.1801L16.4891 15.9926L17.6433 14.8437L12.5771 9.80045ZM18.5297 9.08625L19.3459 9.89876L20.5 8.74987L17.4743 5.73789C17.3213 5.58557 17.1137 5.5 16.8973 5.5C16.6808 5.5 16.4733 5.58557 16.3202 5.73789L13.2945 8.74987L14.4486 9.89876L15.2648 9.08625V11.1874H18.5297V9.08625Z" fill="white"/>
</svg>
