<svg width="24" height="24" viewBox="0 0 24 24" fill="none" xmlns="http://www.w3.org/2000/svg">
<path d="M17.7505 5.74963H13.7505C13.674 5.74963 13.5984 5.7672 13.5297 5.80101C13.461 5.83482 13.401 5.88396 13.3543 5.94463L9.3543 11.1453L8.75055 10.5428C8.65768 10.4498 8.54739 10.376 8.42599 10.3257C8.30459 10.2754 8.17447 10.2495 8.04305 10.2495C7.91163 10.2495 7.78151 10.2754 7.66011 10.3257C7.53871 10.376 7.42842 10.4498 7.33555 10.5428L6.54242 11.3365C6.44954 11.4294 6.37586 11.5396 6.32559 11.661C6.27532 11.7823 6.24945 11.9124 6.24945 12.0437C6.24945 12.175 6.27532 12.3051 6.32559 12.4264C6.37586 12.5478 6.44954 12.658 6.54242 12.7509L7.79242 14.0009L6.04242 15.7509C5.94954 15.8437 5.87586 15.954 5.82559 16.0753C5.77532 16.1967 5.74945 16.3267 5.74945 16.4581C5.74945 16.5894 5.77532 16.7195 5.82559 16.8408C5.87586 16.9621 5.94954 17.0724 6.04242 17.1653L6.83555 17.9578C7.02307 18.1452 7.27732 18.2504 7.54242 18.2504C7.80753 18.2504 8.06178 18.1452 8.2493 17.9578L9.9993 16.2078L11.2493 17.4578C11.3422 17.5507 11.4525 17.6245 11.5739 17.6748C11.6953 17.7251 11.8254 17.751 11.9568 17.751C12.0882 17.751 12.2183 17.7251 12.3397 17.6748C12.4611 17.6245 12.5714 17.5507 12.6643 17.4578L13.4574 16.664C13.5503 16.5711 13.624 16.4609 13.6743 16.3396C13.7245 16.2182 13.7504 16.0882 13.7504 15.9568C13.7504 15.8255 13.7245 15.6954 13.6743 15.5741C13.624 15.4527 13.5503 15.3425 13.4574 15.2496L12.8549 14.6471L18.0555 10.6471C18.1164 10.6003 18.1656 10.5401 18.1994 10.4711C18.2333 10.4022 18.2507 10.3264 18.2505 10.2496V6.24963C18.2505 6.11703 18.1979 5.98985 18.1041 5.89608C18.0103 5.80231 17.8832 5.74963 17.7505 5.74963ZM7.54367 17.2496L6.75055 16.4571L8.50055 14.7071L9.29305 15.4996L7.54367 17.2496ZM11.9568 16.7496L7.25055 12.044L8.0443 11.2496L12.7505 15.9565L11.9568 16.7496ZM17.2505 10.0034L12.1418 13.9334L11.458 13.2496L14.6043 10.1034C14.698 10.0096 14.7507 9.88235 14.7506 9.74973C14.7505 9.6171 14.6978 9.48993 14.604 9.3962C14.5102 9.30246 14.383 9.24983 14.2503 9.24989C14.1177 9.24995 13.9905 9.30269 13.8968 9.39651L10.7505 12.5421L10.0674 11.8584L13.9968 6.74963H17.2505V10.0034Z" fill="white"/>
</svg>
