<svg width="16" height="17" viewBox="0 0 16 17" fill="none" xmlns="http://www.w3.org/2000/svg">
<path d="M13.5 14.125H12.375V7.65562L13.1187 6.91125C13.2002 6.83027 13.2648 6.73395 13.3088 6.62785C13.3528 6.52175 13.3753 6.40798 13.375 6.29313V3.5C13.375 3.26794 13.2828 3.04538 13.1187 2.88128C12.9546 2.71719 12.7321 2.625 12.5 2.625H11C10.9005 2.625 10.8052 2.66451 10.7348 2.73483C10.6645 2.80516 10.625 2.90054 10.625 3V4.625H9.375V3C9.375 2.90054 9.33549 2.80516 9.26517 2.73483C9.19484 2.66451 9.09946 2.625 9 2.625H7C6.90054 2.625 6.80516 2.66451 6.73484 2.73483C6.66451 2.80516 6.625 2.90054 6.625 3V4.625H5.375V3C5.375 2.90054 5.33549 2.80516 5.26516 2.73483C5.19484 2.66451 5.09946 2.625 5 2.625H3.5C3.26794 2.625 3.04538 2.71719 2.88128 2.88128C2.71719 3.04538 2.625 3.26794 2.625 3.5V6.29313C2.62473 6.40798 2.64724 6.52175 2.69123 6.62785C2.73521 6.73395 2.7998 6.83027 2.88125 6.91125L3.625 7.65562V14.125H2.5C2.40054 14.125 2.30516 14.1645 2.23483 14.2348C2.16451 14.3052 2.125 14.4005 2.125 14.5C2.125 14.5995 2.16451 14.6948 2.23483 14.7652C2.30516 14.8355 2.40054 14.875 2.5 14.875H13.5C13.5995 14.875 13.6948 14.8355 13.7652 14.7652C13.8355 14.6948 13.875 14.5995 13.875 14.5C13.875 14.4005 13.8355 14.3052 13.7652 14.2348C13.6948 14.1645 13.5995 14.125 13.5 14.125ZM4.265 7.235L3.41125 6.38125C3.38801 6.35781 3.37497 6.32613 3.375 6.29313V3.5C3.375 3.46685 3.38817 3.43505 3.41161 3.41161C3.43505 3.38817 3.46685 3.375 3.5 3.375H4.625V5C4.625 5.09946 4.66451 5.19484 4.73484 5.26516C4.80516 5.33549 4.90054 5.375 5 5.375H7C7.09946 5.375 7.19484 5.33549 7.26516 5.26516C7.33549 5.19484 7.375 5.09946 7.375 5V3.375H8.625V5C8.625 5.09946 8.66451 5.19484 8.73483 5.26516C8.80516 5.33549 8.90054 5.375 9 5.375H11C11.0995 5.375 11.1948 5.33549 11.2652 5.26516C11.3355 5.19484 11.375 5.09946 11.375 5V3.375H12.5C12.5332 3.375 12.5649 3.38817 12.5884 3.41161C12.6118 3.43505 12.625 3.46685 12.625 3.5V6.29313C12.625 6.32613 12.612 6.35781 12.5887 6.38125L11.735 7.235C11.6647 7.30526 11.6251 7.40058 11.625 7.5V14.125H9.875V11C9.875 10.5027 9.67746 10.0258 9.32583 9.67417C8.9742 9.32254 8.49728 9.125 8 9.125C7.50272 9.125 7.02581 9.32254 6.67417 9.67417C6.32254 10.0258 6.125 10.5027 6.125 11V14.125H4.375V7.5C4.37491 7.40058 4.33535 7.30526 4.265 7.235ZM9.125 14.125H6.875V11C6.875 10.7016 6.99353 10.4155 7.2045 10.2045C7.41548 9.99353 7.70163 9.875 8 9.875C8.29837 9.875 8.58452 9.99353 8.7955 10.2045C9.00647 10.4155 9.125 10.7016 9.125 11V14.125Z" fill="black"/>
</svg>
