<svg width="16" height="17" viewBox="0 0 16 17" fill="none" xmlns="http://www.w3.org/2000/svg">
<path d="M4 6.32495C4.13261 6.32495 4.25979 6.27227 4.35355 6.1785C4.44732 6.08474 4.5 5.95756 4.5 5.82495C4.5 5.69234 4.44732 5.56517 4.35355 5.4714C4.25979 5.37763 4.13261 5.32495 4 5.32495C3.86739 5.32495 3.74021 5.37763 3.64645 5.4714C3.55268 5.56517 3.5 5.69234 3.5 5.82495C3.5 5.95756 3.55268 6.08474 3.64645 6.1785C3.74021 6.27227 3.86739 6.32495 4 6.32495Z" fill="black"/>
<path d="M5.368 3.23701C5.76503 2.47508 6.38823 1.85478 7.152 1.4613C7.91576 1.06783 8.78262 0.920481 9.6335 1.03951C9.84002 1.06823 10.0326 1.16015 10.1848 1.30267C10.337 1.44519 10.4413 1.63132 10.4835 1.83551C11.1762 1.29367 12.0305 0.999521 12.91 1.00001H13.88C14.177 1.00001 14.4619 1.11801 14.672 1.32805C14.882 1.53809 15 1.82297 15 2.12001V4.01001C15 5.82901 14.4125 7.57101 13.365 9.00001H14.5C15.051 9.00001 15.5 9.44901 15.5 10V10.5C15.5 13.8115 12.674 16 10.005 16C9.87335 16.0003 9.74292 15.9747 9.62117 15.9247C9.49941 15.8746 9.38871 15.801 9.29539 15.7082C9.20207 15.6153 9.12795 15.505 9.07727 15.3835C9.02658 15.262 9.00033 15.1317 9 15V14.055C9.0002 14.0478 8.99882 14.0406 8.99598 14.0339C8.99313 14.0273 8.98887 14.0214 8.9835 14.0165C8.97866 14.0111 8.97271 14.0069 8.96606 14.004C8.95941 14.0012 8.95223 13.9998 8.945 14H6.88C5.97744 14.0006 5.08927 13.7739 4.2974 13.3408C3.50552 12.9078 2.83546 12.2823 2.349 11.522C2.22975 11.7709 2.04519 11.9828 1.815 12.135L1.33 12.46C1.2982 12.4815 1.26116 12.494 1.22282 12.496C1.18449 12.4981 1.14632 12.4897 1.11241 12.4717C1.0785 12.4537 1.05012 12.4268 1.03032 12.3939C1.01051 12.361 1.00003 12.3234 1 12.285V11.41C1 10.895 1.255 10.415 1.68 10.135L1.71 10.115C1.66635 9.96251 1.62931 9.8082 1.599 9.65251L1.275 9.46501C0.795 9.18501 0.5 8.66501 0.5 8.11001L0.505 4.75001C0.505 4.61001 0.615 4.50001 0.755 4.50001C0.89 4.50001 1.005 4.61001 1.005 4.75001L1.0035 5.74001L1.4935 5.44351C1.65 4.06351 2.841 3.00001 4.25 3.00001C4.648 3.00001 5.0265 3.08501 5.368 3.23701ZM6.619 4.35301L7.1005 4.87151L9.5045 2.71401L9.505 2.04501C9.50511 2.04051 9.5037 2.03611 9.501 2.03251L9.4985 2.03051H9.4965C8.83832 1.93803 8.16774 2.05543 7.58013 2.36602C6.99252 2.67662 6.51781 3.16458 6.2235 3.76051L6.199 3.81051C6.3605 3.97251 6.502 4.15451 6.619 4.35301ZM1.002 6.67351L1 8.11001C1 8.27051 1.0365 8.42651 1.1035 8.56801L1.36 8.18501C1.40233 8.12001 1.449 8.05918 1.5 8.00251V6.97201L1.002 6.67351ZM2.5 7.50601C2.545 7.50201 2.59 7.50001 2.635 7.50001H3.51C3.68 7.50001 3.785 7.69001 3.69 7.83001L3.365 8.31501C3.16386 8.6182 2.86126 8.83978 2.5115 8.94001C2.52983 9.19001 2.56817 9.43301 2.6265 9.66901L3.7885 10.3415C3.90536 10.2188 4.05275 10.1294 4.21557 10.0825C4.37838 10.0355 4.55075 10.0328 4.71499 10.0745C4.87923 10.1161 5.02941 10.2008 5.15015 10.3197C5.27088 10.4386 5.3578 10.5874 5.402 10.751L5.405 10.75L5.59 11.43C5.625 11.565 5.545 11.7 5.41 11.74L4.73 11.925L4.729 11.922C4.56935 11.9652 4.40122 11.9662 4.24106 11.9249C4.08091 11.8836 3.93422 11.8014 3.81537 11.6864C3.69652 11.5714 3.60958 11.4275 3.56306 11.2688C3.51655 11.1101 3.51204 10.942 3.55 10.781L2.872 10.3885C3.21493 11.1655 3.77638 11.8261 4.48799 12.2898C5.1996 12.7534 6.03067 13.0002 6.88 13H8.945C9.526 13 10 13.474 10 14.055V14.9985L10.001 14.999L10.0015 14.9995H10.003L10.005 15C12.196 15 14.5 13.1885 14.5 10.5V10H11.1255L11.9335 9.15501C13.2586 7.76975 13.9988 5.92701 14 4.01001V2.12001C14 2.10425 13.9969 2.08865 13.9909 2.07409C13.9848 2.05953 13.976 2.0463 13.9649 2.03516C13.9537 2.02401 13.9405 2.01517 13.9259 2.00914C13.9114 2.00311 13.8958 2.00001 13.88 2.00001H12.91C12.1355 1.99939 11.3922 2.30492 10.842 2.85001L7.8485 5.80851L7.8475 5.81001C7.3815 6.27451 6.624 6.17501 6.27 5.64901L6.2665 5.64401L5.82 4.96201L5.169 4.26051C4.89275 4.09013 4.57456 3.99994 4.25 4.00001C3.2765 4.00001 2.4765 4.79001 2.4765 5.75001C2.4765 5.95501 2.484 6.13601 2.498 6.29701L2.5 6.31851V7.50601Z" fill="black"/>
</svg>
