<svg width="32" height="32" viewBox="0 0 32 32" fill="none" xmlns="http://www.w3.org/2000/svg">
<path d="M9.92609 10.074C14.5353 8.4942 17.1688 8.4942 21.7779 10.074M9.92609 21.9259C14.0742 23.5058 17.6298 23.5058 21.7779 21.9259" stroke="black" stroke-width="1.5" stroke-linecap="round" stroke-linejoin="round"/>
<path d="M12.127 22.6666C12.127 24 9.61437 26.6666 8.96844 26.6666C7.03304 26.6666 5.31452 24.4444 4.45407 22.6666C3.59363 20.4444 3.80933 14.8895 6.3883 7.33391C8.268 5.98042 10.1572 5.54665 12.127 5.33331L13.4816 8.88887M19.577 22.6666C19.577 24 22.0896 26.6666 22.7356 26.6666C24.671 26.6666 26.3895 24.4444 27.2499 22.6666C28.1104 20.4444 27.8947 14.8895 25.3157 7.33391C23.436 5.98042 21.5468 5.54665 19.577 5.33331L18.2224 8.88887M10.5305 16H10.5187M21.1853 16H21.1735" stroke="black" stroke-width="1.5" stroke-linecap="round" stroke-linejoin="round"/>
</svg>
