<svg width="16" height="17" viewBox="0 0 16 17" fill="none" xmlns="http://www.w3.org/2000/svg">
<path d="M5.81348 10.3773V6.30261H6.69881V10.3773H5.81348ZM7.57881 10.3773V6.30261H8.48014V10.3773H7.57881ZM9.36548 10.3773V6.30261H10.2295V10.3773H9.36548Z" fill="black"/>
<path d="M8.00046 14.3666C11.2405 14.3666 13.8671 11.74 13.8671 8.49997C13.8671 5.25997 11.2405 2.6333 8.00046 2.6333C4.76046 2.6333 2.13379 5.25997 2.13379 8.49997C2.13379 11.74 4.76046 14.3666 8.00046 14.3666ZM11.5898 11.2413C11.6485 11.428 11.5098 11.6146 11.3231 11.62H4.68312C4.49646 11.62 4.35779 11.4386 4.41112 11.2573L4.59779 10.5906C4.62979 10.468 4.74179 10.3826 4.86979 10.3826H4.92846V6.23863C4.70446 6.0893 4.66179 5.7213 4.93912 5.55597L7.81912 3.8173C7.94712 3.7373 8.10712 3.7373 8.23512 3.8173L11.1098 5.55597C11.3871 5.7213 11.3445 6.0893 11.1151 6.23863V10.3773H11.0991C11.2218 10.3773 11.3338 10.4573 11.3711 10.5746L11.5898 11.2413Z" fill="black"/>
<path d="M8 0.5C3.58187 0.5 0 4.08187 0 8.5C0 12.9181 3.58187 16.5 8 16.5C12.4181 16.5 16 12.9181 16 8.5C16 4.08187 12.4181 0.5 8 0.5ZM1.06667 8.5C1.06667 4.67067 4.17067 1.56667 8 1.56667C11.8293 1.56667 14.9333 4.67067 14.9333 8.5C14.9333 12.3293 11.8293 15.4333 8 15.4333C4.17067 15.4333 1.06667 12.3293 1.06667 8.5Z" fill="black"/>
</svg>
