<svg width="16" height="18" viewBox="0 0 16 18" fill="none" xmlns="http://www.w3.org/2000/svg">
<path d="M1.02185 8.78567C1.02185 7.4319 1.02185 6.75502 1.295 6.15988C1.56914 5.56474 2.08254 5.12511 3.11032 4.24386L4.10721 3.38953C5.9664 1.79751 6.8935 1 8.00004 1C9.10659 1 10.0347 1.79651 11.8929 3.38854L12.8898 4.24287C13.9166 5.12411 14.4309 5.56374 14.7041 6.15888C14.9782 6.75402 14.9782 7.4309 14.9782 8.78467V13.0125C14.9782 14.8926 14.9782 15.8317 14.3941 16.4158C13.8099 17 12.8708 17 10.9907 17H5.00939C3.12926 17 2.1902 17 1.60603 16.4158C1.02185 15.8317 1.02185 14.8926 1.02185 13.0125V8.78567Z" stroke="#8612FF"/>
<path d="M10.4922 17V12.0156C10.4922 11.7512 10.3872 11.4976 10.2003 11.3107C10.0133 11.1237 9.75974 11.0187 9.49535 11.0187H6.5047C6.24031 11.0187 5.98675 11.1237 5.79979 11.3107C5.61284 11.4976 5.50781 11.7512 5.50781 12.0156V17" stroke="#8612FF" stroke-linecap="round" stroke-linejoin="round"/>
</svg>
