<svg width="16" height="17" viewBox="0 0 16 17" fill="none" xmlns="http://www.w3.org/2000/svg">
<path d="M3.37379 14.54C3.28192 14.637 3.17152 14.7147 3.04911 14.7684C2.92671 14.8221 2.79478 14.8507 2.66113 14.8525C2.52748 14.8544 2.39482 14.8294 2.27099 14.779C2.14716 14.7287 2.03468 14.6541 1.94019 14.5596C1.8457 14.465 1.77112 14.3525 1.72085 14.2286C1.67059 14.1048 1.64567 13.9721 1.64756 13.8385C1.64945 13.7048 1.67811 13.5729 1.73186 13.4505C1.7856 13.3282 1.86333 13.2178 1.96046 13.126C2.14915 12.9439 2.4018 12.8432 2.664 12.8456C2.92619 12.848 3.17696 12.9533 3.36228 13.1388C3.5476 13.3243 3.65265 13.5752 3.6548 13.8374C3.65696 14.0996 3.55604 14.3521 3.37379 14.5406M5.33379 11.1666L3.66713 12.8333M6.33379 11.5L13.3825 5.30196C13.5675 5.14187 13.6969 4.92707 13.7518 4.68863L14.3338 2.16663L11.8118 2.74863C11.5733 2.80356 11.3586 2.9329 11.1985 3.11796L5.00046 10.1666M2.66713 9.16663H3.04846C3.40205 9.1667 3.74114 9.30723 3.99113 9.55729L6.94313 12.5093C7.19319 12.7593 7.33372 13.0984 7.33379 13.452V13.8333" stroke="black" stroke-linecap="round" stroke-linejoin="round"/>
</svg>
