<svg width="24" height="24" viewBox="0 0 24 24" fill="none" xmlns="http://www.w3.org/2000/svg">
<path d="M12 5.25C11.7004 5.24993 11.4045 5.31089 11.1334 5.42853C10.8623 5.54617 10.6226 5.7176 10.4314 5.93061C10.2402 6.14361 10.1022 6.39295 10.0272 6.66085C9.95227 6.92875 9.94222 7.20863 9.99778 7.48053C9.57037 7.69605 9.27111 7.94784 9.04222 8.14011C8.97111 8.20123 8.90593 8.25482 8.84667 8.30089C8.70811 8.41301 8.5491 8.50151 8.37704 8.56226C8.19407 8.62384 7.94074 8.67105 7.55556 8.67105C7.40821 8.67105 7.26691 8.72512 7.16272 8.82135C7.05853 8.91759 7 9.04811 7 9.18421C7 9.32031 7.05853 9.45083 7.16272 9.54707C7.26691 9.6433 7.40821 9.69737 7.55556 9.69737C8.03852 9.69737 8.42741 9.63853 8.76 9.52563C9.0963 9.41137 9.34519 9.25195 9.55556 9.09116C9.66889 9.00426 9.76593 8.92353 9.85704 8.84689C10.0585 8.67858 10.2333 8.53216 10.4941 8.39874C10.7459 8.65395 11.0741 8.84553 11.4444 8.94268V15C11.4444 15.7992 11.2696 16.3595 10.9956 16.7078C10.7407 17.0307 10.3615 17.2237 9.77778 17.2237C9.63044 17.2237 9.48913 17.2777 9.38494 17.374C9.28075 17.4702 9.22222 17.6007 9.22222 17.7368C9.22222 17.8729 9.28075 18.0035 9.38494 18.0997C9.48913 18.1959 9.63044 18.25 9.77778 18.25C10.6756 18.25 11.4074 17.9298 11.8941 17.3119C11.9252 17.2709 11.9556 17.2298 11.9852 17.1888C12.0795 17.3179 12.1849 17.4362 12.3015 17.5439C12.84 18.0406 13.5459 18.25 14.2222 18.25C14.3696 18.25 14.5109 18.1959 14.6151 18.0997C14.7192 18.0035 14.7778 17.8729 14.7778 17.7368C14.7778 17.6007 14.7192 17.4702 14.6151 17.374C14.5109 17.2777 14.3696 17.2237 14.2222 17.2237C13.7881 17.2237 13.383 17.0909 13.0874 16.8179C12.7963 16.5491 12.5556 16.0927 12.5556 15.3421V8.942C12.9211 8.84611 13.2503 8.65769 13.5059 8.39805C13.7667 8.53216 13.9415 8.67858 14.143 8.84689C14.2348 8.92353 14.3319 9.00426 14.4444 9.09116C14.6556 9.25263 14.9037 9.41137 15.24 9.52563C15.5733 9.63853 15.9615 9.69737 16.4444 9.69737C16.5918 9.69737 16.7331 9.6433 16.8373 9.54707C16.9415 9.45083 17 9.32031 17 9.18421C17 9.04811 16.9415 8.91759 16.8373 8.82135C16.7331 8.72512 16.5918 8.67105 16.4444 8.67105C16.0593 8.67105 15.8059 8.62453 15.6237 8.56158C15.4517 8.50124 15.2927 8.41321 15.1541 8.30158C15.0874 8.2491 15.0219 8.19526 14.9578 8.14011C14.7289 7.94853 14.4296 7.69605 14.0022 7.48053C14.0249 7.3674 14.0365 7.25109 14.037 7.13158C14.037 6.63255 13.8224 6.15397 13.4404 5.8011C13.0584 5.44824 12.5403 5.25 12 5.25ZM11.0741 7.13158C11.0741 6.90475 11.1716 6.68721 11.3453 6.52682C11.5189 6.36642 11.7544 6.27632 12 6.27632C12.2456 6.27632 12.4811 6.36642 12.6547 6.52682C12.8284 6.68721 12.9259 6.90475 12.9259 7.13158C12.9259 7.35841 12.8284 7.57595 12.6547 7.73634C12.4811 7.89673 12.2456 7.98684 12 7.98684C11.7544 7.98684 11.5189 7.89673 11.3453 7.73634C11.1716 7.57595 11.0741 7.35841 11.0741 7.13158Z" fill="white"/>
<path d="M5.5122 13.5544C5.37635 13.5544 5.24607 13.6128 5.15002 13.7168C5.05396 13.8208 5 13.9618 5 14.1088C5 14.9419 5.30579 15.7409 5.8501 16.33C6.39442 16.9191 7.13266 17.25 7.90244 17.25C8.67221 17.25 9.41046 16.9191 9.95477 16.33C10.4991 15.7409 10.8049 14.9419 10.8049 14.1088C10.8049 13.9618 10.7509 13.8208 10.6549 13.7168C10.5588 13.6128 10.4285 13.5544 10.2927 13.5544H9.92937L8.66117 10.751L8.64888 10.7251C8.57377 10.5791 8.46347 10.4579 8.32975 10.3744C8.19602 10.2909 8.04386 10.2482 7.88948 10.2508C7.7351 10.2535 7.58428 10.3014 7.45307 10.3895C7.32186 10.4775 7.21518 10.6025 7.14439 10.751L5.87551 13.5544H5.5122ZM6.18351 14.6631H9.71015C9.59853 15.0888 9.36166 15.4634 9.03549 15.7302C8.70931 15.997 8.31162 16.1413 7.90278 16.1413C7.49394 16.1413 7.09625 15.997 6.77008 15.7302C6.4439 15.4634 6.20703 15.0888 6.09541 14.6631H6.18351ZM8.78888 13.5544H7.016L7.90244 11.5958L8.78888 13.5544ZM13.1951 14.1088C13.1951 13.9618 13.2491 13.8208 13.3451 13.7168C13.4412 13.6128 13.5715 13.5544 13.7073 13.5544H14.0706L15.3395 10.751L15.3511 10.7251C15.4262 10.5789 15.5365 10.4576 15.6703 10.3739C15.8041 10.2902 15.9564 10.2475 16.1109 10.2501C16.2654 10.2528 16.4163 10.3008 16.5476 10.389C16.6789 10.4772 16.7856 10.6023 16.8563 10.751L18.1245 13.5544H18.4878C18.6236 13.5544 18.7539 13.6128 18.85 13.7168C18.946 13.8208 19 13.9618 19 14.1088C19 14.9419 18.6942 15.7409 18.1499 16.33C17.6056 16.9191 16.8673 17.25 16.0976 17.25C15.3278 17.25 14.5895 16.9191 14.0452 16.33C13.5009 15.7409 13.1951 14.9419 13.1951 14.1088ZM17.7946 14.6631H14.2899C14.4013 15.0891 14.6381 15.4641 14.9644 15.7311C15.2906 15.9981 15.6885 16.1426 16.0976 16.1426C16.5066 16.1426 16.9045 15.9981 17.2308 15.7311C17.557 15.4641 17.7939 15.0891 17.9053 14.6631H17.7946ZM16.984 13.5544L16.0976 11.5958L15.2118 13.5544H16.984Z" fill="white"/>
</svg>
