<svg width="32" height="32" viewBox="0 0 32 32" fill="none" xmlns="http://www.w3.org/2000/svg">
<rect width="32" height="32" rx="16" fill="#FE007C"/>
<path d="M20.97 10.32H22.39M11.74 6.06H20.26C21.7664 6.06 23.2112 6.65842 24.2764 7.72363C25.3416 8.78884 25.94 10.2336 25.94 11.74V20.26C25.94 21.7664 25.3416 23.2112 24.2764 24.2764C23.2112 25.3416 21.7664 25.94 20.26 25.94H11.74C10.2336 25.94 8.78884 25.3416 7.72363 24.2764C6.65842 23.2112 6.06 21.7664 6.06 20.26V11.74C6.06 10.2336 6.65842 8.78884 7.72363 7.72363C8.78884 6.65842 10.2336 6.06 11.74 6.06ZM16 20.26C14.8702 20.26 13.7866 19.8112 12.9877 19.0123C12.1888 18.2134 11.74 17.1298 11.74 16C11.74 14.8702 12.1888 13.7866 12.9877 12.9877C13.7866 12.1888 14.8702 11.74 16 11.74C17.1298 11.74 18.2134 12.1888 19.0123 12.9877C19.8112 13.7866 20.26 14.8702 20.26 16C20.26 17.1298 19.8112 18.2134 19.0123 19.0123C18.2134 19.8112 17.1298 20.26 16 20.26Z" stroke="white" stroke-width="1.5"/>
</svg>
