<svg width="65" height="64" viewBox="0 0 65 64" fill="none" xmlns="http://www.w3.org/2000/svg">
<path d="M15.6328 0.5H34.1172C50.4096 0.5 63.6172 13.7076 63.6172 30V48.4844C63.6172 56.777 56.8942 63.5 48.6016 63.5C22.1006 63.4997 0.617443 42.0165 0.617188 15.5156C0.617188 7.22299 7.34017 0.5 15.6328 0.5Z" fill="#8BFF12" stroke="#8BFF12"/>
<path d="M17.6172 38.5C14.0172 32.1 7.45052 34.1667 4.61719 36C7.45052 42.1667 16.4172 55 27.6172 59C29.6172 59 32.1172 48.5 29.1172 48.5C27.7266 48.5 26.5758 48.468 25.6172 48.396C21.4371 48.0821 20.9122 47.0067 20.1064 44.5C19.6351 43.0341 19.0678 41.0788 17.6172 38.5Z" fill="black"/>
<path fill-rule="evenodd" clip-rule="evenodd" d="M3.99994 35L7.99994 33C8.33328 29.8333 8.81724 23.4999 9.61724 23.4999C10.4172 23.4999 9.99994 30.3333 9.99994 33C12.1666 33.1667 16.4999 35 16.4999 35C15.8587 29.8934 14.3165 9.83799 12.2619 3.49995C11.7564 1.9408 11.2082 0.999949 10.6172 0.999949C7.11724 0.999949 -5.00006 13.5 3.99994 35ZM9.61724 17.9999C8.81724 17.5999 6.95054 18.4999 6.11719 18.9999C6.91719 10.1999 8.78389 10.6666 9.61724 11.9999C9.95057 14.1666 10.4172 18.3999 9.61724 17.9999Z" fill="black"/>
<path d="M16.6172 1.49995C15.4173 -1.30005 13.2137 1.66662 12.2619 3.49995C14.3165 9.83799 15.8587 29.8934 16.4999 35C18.9999 31 22.9999 30.5 22.9999 30.5C22.9999 30.5 19.6172 23.1667 19.6172 20L27.4999 31.5C27.5364 30.7534 27.6916 27.9121 27.7294 27C28.0374 19.5637 28.3298 7.41926 27.6172 3.49995C26.8172 -0.900091 23.6172 0.333266 22.1172 1.49995L22.6172 16C21.1172 12.3333 17.8172 4.29995 16.6172 1.49995Z" fill="black"/>
<path d="M27.6172 3.49995C28.3298 7.41926 28.0374 19.5637 27.7294 27C30.2848 33.0133 33.1723 31.2677 34.643 28.5C35.2512 27.3554 35.6172 24.7926 35.6172 24.5C35.2751 24.3974 34.9506 24.2754 34.643 24.1357C25.9672 20.1969 30.7794 2.24501 35.6039 10.4773L35.6727 9.5C35.7121 8.4775 35.6172 6.78781 35.6172 6.78781C35.5691 6.42385 35.5811 6.09948 35.6407 5.81337C35.4354 0.681636 29.9727 -1.68215 27.6172 3.49995Z" fill="black"/>
<path d="M35.6172 24.5C35.6172 24.7926 35.2512 27.3554 34.643 28.5C35.3011 30.5 36.9172 32.3 38.1172 29.5C39.6172 26 40.1172 14 39.6172 10.5C39.2172 7.7 36.8208 8.66667 35.6727 9.5C35.6603 9.82113 35.6419 10.1543 35.6172 10.5L35.6039 10.4773L34.643 24.1357C34.9506 24.2754 35.2751 24.3974 35.6172 24.5Z" fill="black"/>
<path d="M35.6172 6.78781C35.6172 6.78781 38.4172 9.41809 39.6172 6.78781C40.9731 3.81587 36.201 3.12182 35.6407 5.81337C35.6533 6.12814 35.6461 6.45332 35.6172 6.78781Z" fill="black"/>
<path d="M42.6172 14C41.4172 14.4 42.1172 15.5 42.6172 16L44.6172 17L45.1172 20L41.6172 18.9999C40.9505 20.1666 40.7172 23.1 45.1172 25.5C44.7725 28.2574 43.5978 31.3309 41.4999 31.5C41.4999 31.5 44.9999 30.5 46.4999 31.9999C46.4999 30.5 47.1172 23 47.1172 23C47.1172 23 52.4999 34.5 53.9999 34.5L52.4972 16V7.5L52.1172 6.5C52.1172 6.5 51.3087 5.36789 50.6172 5.5C47.9999 6 49.9999 18.5 49.9999 18.5C49.9999 18.5 47.8827 8 46.9999 4C46.6936 2.61187 45.881 2.66329 44.4999 3C42.1452 3.57409 41.6172 7.87525 41.6172 7.87525C44.5274 9.67637 47.1228 12.378 42.6172 14Z" fill="black"/>
<path d="M39.6172 10.5C40.1172 14 39.6172 26 38.1172 29.5C39.5151 30.432 40.5546 31.5762 41.4999 31.5C43.5978 31.3309 44.7725 28.2574 45.1172 25.5C40.7172 23.1 40.9505 20.1666 41.6172 18.9999L45.1172 20L44.6172 17L42.6172 16C42.1172 15.5 41.4172 14.4 42.6172 14C47.1228 12.378 44.5274 9.67637 41.6172 7.87525C40.939 7.45551 40.2437 7.08467 39.6172 6.78781C38.4172 9.41809 35.6172 6.78781 35.6172 6.78781C35.6172 6.78781 35.7121 8.4775 35.6727 9.5C36.8208 8.66667 39.2172 7.7 39.6172 10.5Z" fill="black"/>
<path d="M63.6172 27C64.1172 20 54.9422 6.41256 52.4972 7.5V16C54.6172 16 55.1172 24 53.9999 34.5C55.9999 31.5 60.9999 32.5 62.4999 32.5C63.9999 32.5 58.6172 28 57.1172 21C57.5172 16.2 61.9505 23.5 63.6172 27Z" fill="black"/>
<path fill-rule="evenodd" clip-rule="evenodd" d="M51.1172 33.5C48.7172 31.1 46.7839 34.1667 46.1172 36L49.6172 55.6L49.8095 56.6128C50.1799 57.2591 51.1112 57.7822 53.1172 57.3721C54.1498 57.2826 55.4617 57.0173 57.1172 56.5C62.7822 54.7297 58.9197 45.4376 55.1172 39.099C53.5499 36.4864 51.9928 34.3756 51.1172 33.5ZM51.1172 49L50.1172 41.5C52.1172 41 55.1172 44.5 56.6172 47.5C57.8172 49.9 53.4505 49.5 51.1172 49Z" fill="black"/>
<path d="M31.3884 37.5L34.643 49.5C34.3801 49.5 33.3736 49.625 32.4954 49.5C32.7027 53.3333 34.3172 60.7 35.1172 61.5C35.9172 62.3 41.6172 63 41.6172 63L36.6172 43.5L44.5 63.5C44.5 63.5 48.3828 64 50 63.5C50.8047 63.2512 49.8095 56.6128 49.8095 56.6128L49.6172 55.6L46.1172 36C46.1172 36 45.5 32.5 44.6172 31.9999C44.6172 31.9999 43.9999 31 42.4999 33C41.9999 33.6667 42.5764 48.7417 42.6146 49.4756C42.6163 49.4858 42.6172 49.494 42.6172 49.5C42.6172 49.517 42.6163 49.5082 42.6146 49.4756C42.4731 48.6398 38.1172 32.2328 35.6172 31.5C30.5 30 31.1172 35.2733 31.3884 37.5Z" fill="black"/>
<path d="M57.1172 56.5C55.4617 57.0173 54.1498 57.2826 53.1172 57.3721C50.2243 59 52 63.5 54.5 62.5C68.2167 57.0133 61.8735 45 59.6172 40C56.8125 33.7848 63.6172 38 63.6172 37.5C63.6172 37 64.1172 33.5 62.6172 33C55.8172 31.3999 54.7839 36.3993 55.1172 39.099C58.9197 45.4376 62.7822 54.7297 57.1172 56.5Z" fill="black"/>
<path fill-rule="evenodd" clip-rule="evenodd" d="M24.6172 31.9999C19.4172 31.9999 19.4433 40.3333 20.1064 44.5C20.9122 47.0067 21.4371 48.0821 25.6172 48.396C27.1172 36.7921 31.6172 46 31.1172 48C30.8672 49 31.6172 49.375 32.4954 49.5C33.3736 49.625 34.3801 49.5 34.643 49.5L31.3884 37.5L31.1172 36.5C31.1172 36.5 29.8172 31.9999 24.6172 31.9999ZM28.6172 39.5C27.7839 39.8333 25.8172 40.5 24.6172 40.5C23.1172 38 25.1172 35 26.1172 35C26.9172 35 28.1172 38 28.6172 39.5Z" fill="black"/>
<path d="M16.4999 35C16.4999 35 12.1666 33.1667 9.99994 33C9.99994 30.3333 10.4172 23.4999 9.61724 23.4999C8.81724 23.4999 8.33328 29.8333 7.99994 33L3.99994 35C-5.00006 13.5 7.11724 0.999949 10.6172 0.999949C11.2082 0.999949 11.7564 1.9408 12.2619 3.49995M16.4999 35C15.8587 29.8934 14.3165 9.83799 12.2619 3.49995M16.4999 35C18.9999 31 22.9999 30.5 22.9999 30.5C22.9999 30.5 19.6172 23.1667 19.6172 20L27.4999 31.5C27.5364 30.7534 27.6916 27.9121 27.7294 27M12.2619 3.49995C13.2137 1.66662 15.4173 -1.30005 16.6172 1.49995C17.8172 4.29995 21.1172 12.3333 22.6172 16L22.1172 1.49995C23.6172 0.333266 26.8172 -0.900091 27.6172 3.49995M27.6172 3.49995C28.3298 7.41926 28.0374 19.5637 27.7294 27M27.6172 3.49995C29.9727 -1.68215 35.4354 0.681636 35.6407 5.81337M35.6172 10.5C35.6419 10.1543 35.6603 9.82113 35.6727 9.5M35.6172 10.5C35.6128 10.4924 35.6083 10.4848 35.6039 10.4773M35.6172 10.5L35.6039 10.4773M27.7294 27C30.2848 33.0133 33.1723 31.2677 34.643 28.5M34.643 28.5C35.2512 27.3554 35.6172 24.7926 35.6172 24.5C35.2751 24.3974 34.9506 24.2754 34.643 24.1357M34.643 28.5C35.3011 30.5 36.9172 32.3 38.1172 29.5M38.1172 29.5C39.6172 26 40.1172 14 39.6172 10.5C39.2172 7.7 36.8208 8.66667 35.6727 9.5M38.1172 29.5C39.5151 30.432 40.5546 31.5762 41.4999 31.5M35.6727 9.5C35.7121 8.4775 35.6172 6.78781 35.6172 6.78781M35.6727 9.5L35.6039 10.4773M35.6172 6.78781C35.6172 6.78781 38.4172 9.41809 39.6172 6.78781M35.6172 6.78781C35.5691 6.42385 35.5811 6.09948 35.6407 5.81337M35.6172 6.78781C35.6461 6.45332 35.6533 6.12814 35.6407 5.81337M39.6172 6.78781C40.2437 7.08467 40.939 7.45551 41.6172 7.87525M39.6172 6.78781C40.9731 3.81587 36.201 3.12182 35.6407 5.81337M41.6172 7.87525C44.5274 9.67637 47.1228 12.378 42.6172 14C41.4172 14.4 42.1172 15.5 42.6172 16L44.6172 17L45.1172 20L41.6172 18.9999C40.9505 20.1666 40.7172 23.1 45.1172 25.5C44.7725 28.2574 43.5978 31.3309 41.4999 31.5M41.6172 7.87525C41.6172 7.87525 42.1452 3.57409 44.4999 3C45.881 2.66329 46.6936 2.61187 46.9999 4C47.8827 8 49.9999 18.5 49.9999 18.5C49.9999 18.5 47.9999 6 50.6172 5.5C51.3087 5.36789 52.1172 6.5 52.1172 6.5L52.4972 7.5M53.9999 34.5C52.4999 34.5 47.1172 23 47.1172 23C47.1172 23 46.4999 30.5 46.4999 31.9999C44.9999 30.5 41.4999 31.5 41.4999 31.5M53.9999 34.5C55.9999 31.5 60.9999 32.5 62.4999 32.5C63.9999 32.5 58.6172 28 57.1172 21C57.5172 16.2 61.9505 23.5 63.6172 27C64.1172 20 54.9422 6.41256 52.4972 7.5M53.9999 34.5L52.4972 16M53.9999 34.5C55.1172 24 54.6172 16 52.4972 16M52.4972 7.5V16M34.643 24.1357C25.9672 20.1969 30.7794 2.24501 35.6039 10.4773M34.643 24.1357L35.6039 10.4773M20.1064 44.5C19.6351 43.0341 19.0678 41.0788 17.6172 38.5C14.0172 32.1 7.45052 34.1667 4.61719 36C7.45052 42.1667 16.4172 55 27.6172 59C29.6172 59 32.1172 48.5 29.1172 48.5C27.7266 48.5 26.5758 48.468 25.6172 48.396M20.1064 44.5C19.4433 40.3333 19.4172 31.9999 24.6172 31.9999C29.8172 31.9999 31.1172 36.5 31.1172 36.5L31.3884 37.5M20.1064 44.5C20.9122 47.0067 21.4371 48.0821 25.6172 48.396M25.6172 48.396C27.1172 36.7921 31.6172 46 31.1172 48C30.8672 49 31.6172 49.375 32.4954 49.5M31.3884 37.5L34.643 49.5C34.3801 49.5 33.3736 49.625 32.4954 49.5M31.3884 37.5C31.1172 35.2733 30.5 30 35.6172 31.5C38.1172 32.2328 42.4731 48.6398 42.6146 49.4756M46.1172 36C46.1172 36 45.5 32.5 44.6172 31.9999C44.6172 31.9999 43.9999 31 42.4999 33C41.9999 33.6667 42.5764 48.7417 42.6146 49.4756M46.1172 36C46.7839 34.1667 48.7172 31.1 51.1172 33.5C51.9928 34.3756 53.5499 36.4864 55.1172 39.099M46.1172 36L49.6172 55.6L49.8095 56.6128M32.4954 49.5C32.7027 53.3333 34.3172 60.7 35.1172 61.5C35.9172 62.3 41.6172 63 41.6172 63L36.6172 43.5L44.5 63.5C44.5 63.5 48.3828 64 50 63.5C50.8047 63.2512 49.8095 56.6128 49.8095 56.6128M53.1172 57.3721C54.1498 57.2826 55.4617 57.0173 57.1172 56.5C62.7822 54.7297 58.9197 45.4376 55.1172 39.099M53.1172 57.3721C50.2243 59 52 63.5 54.5 62.5C68.2167 57.0133 61.8735 45 59.6172 40C56.8125 33.7848 63.6172 38 63.6172 37.5C63.6172 37 64.1172 33.5 62.6172 33C55.8172 31.3999 54.7839 36.3993 55.1172 39.099M53.1172 57.3721C51.1112 57.7822 50.1799 57.2591 49.8095 56.6128M42.6146 49.4756C42.6163 49.4858 42.6172 49.494 42.6172 49.5C42.6172 49.517 42.6163 49.5082 42.6146 49.4756ZM6.11719 18.9999C6.95054 18.4999 8.81724 17.5999 9.61724 17.9999C10.4172 18.3999 9.95057 14.1666 9.61724 11.9999C8.78389 10.6666 6.91719 10.1999 6.11719 18.9999ZM24.6172 40.5C25.8172 40.5 27.7839 39.8333 28.6172 39.5C28.1172 38 26.9172 35 26.1172 35C25.1172 35 23.1172 38 24.6172 40.5ZM50.1172 41.5L51.1172 49C53.4505 49.5 57.8172 49.9 56.6172 47.5C55.1172 44.5 52.1172 41 50.1172 41.5Z" stroke="#8BFF12" stroke-width="0.5"/>
</svg>
