<svg width="30" height="31" viewBox="0 0 30 31" fill="none" xmlns="http://www.w3.org/2000/svg">
<path d="M12 0.574997H8V2.575H6V4.575H4V10.575H6V12.575H8V14.575H10V16.575H12V18.575H14V20.575H16V18.575H18V16.575H20V14.575H22V12.575H24V10.575H26V4.575H24V2.575H22V0.574997H18V2.575H16V4.575H14V2.575H12V0.574997ZM12 2.575V4.575H14V6.575H16V4.575H18V2.575H22V4.575H24V10.575H22V12.575H20V14.575H18V16.575H16V18.575H14V16.575H12V14.575H10V12.575H8V10.575H6V4.575H8V2.575H12Z" fill="#8BFF12"/>
<path d="M23.1001 29.425L28.2625 24.2626C28.4144 24.1108 28.4999 23.9049 28.5001 23.6902V16.6C28.5001 16.0629 28.2867 15.5479 27.907 15.1681C27.5272 14.7883 27.0122 14.575 26.4751 14.575C25.938 14.575 25.423 14.7883 25.0432 15.1681C24.6634 15.5479 24.4501 16.0629 24.4501 16.6V22.675" stroke="#8BFF12" stroke-width="1.5" stroke-linecap="round" stroke-linejoin="round"/>
<path d="M23.1 24.025L24.2583 22.8667C24.3194 22.8061 24.3678 22.734 24.4007 22.6545C24.4336 22.575 24.4504 22.4897 24.45 22.4036C24.4491 22.2824 24.4148 22.1638 24.351 22.0607C24.2872 21.9576 24.1963 21.874 24.0882 21.8191L23.4901 21.5207C22.9835 21.2674 22.41 21.1799 21.8508 21.2705C21.2916 21.3611 20.7751 21.6253 20.3744 22.0256L19.1661 23.2339C18.6597 23.7401 18.3752 24.4268 18.375 25.1428V29.425M6.9 29.425L1.7376 24.2626C1.58565 24.1108 1.50019 23.9049 1.5 23.6902V16.6C1.5 16.0629 1.71335 15.5479 2.09311 15.1681C2.47287 14.7883 2.98794 14.575 3.525 14.575C4.06206 14.575 4.57713 14.7883 4.95689 15.1681C5.33665 15.5479 5.55 16.0629 5.55 16.6V22.675" stroke="#8BFF12" stroke-width="1.5" stroke-linecap="round" stroke-linejoin="round"/>
<path d="M6.8998 24.025L5.7415 22.8667C5.62055 22.7427 5.55191 22.5769 5.5498 22.4037C5.5498 22.1566 5.6902 21.9312 5.9116 21.8191L6.50965 21.5208C7.01632 21.2674 7.58984 21.1799 8.14902 21.2705C8.7082 21.3611 9.22472 21.6253 9.62545 22.0257L10.8337 23.2339C11.3401 23.7401 11.6247 24.4268 11.6248 25.1428V29.425" stroke="#8BFF12" stroke-width="1.5" stroke-linecap="round" stroke-linejoin="round"/>
</svg>
