<svg width="14" height="15" viewBox="0 0 14 15" fill="none" xmlns="http://www.w3.org/2000/svg">
<path d="M6.97819 11.5004L3.45022 7.97346L4.15601 7.25571L6.47975 9.57944V0.95639H7.47664V9.57944L9.79938 7.2567L10.5062 7.97346L6.97819 11.5004ZM1.61097 14.9128C1.15173 14.9128 0.768598 14.7593 0.461557 14.4522C0.154517 14.1452 0.00066459 13.7617 0 13.3018V10.8864H0.996885V13.3018C0.996885 13.4553 1.06069 13.5962 1.18829 13.7245C1.31589 13.8528 1.45645 13.9166 1.60997 13.9159H12.3464C12.4993 13.9159 12.6398 13.8521 12.7681 13.7245C12.8964 13.5969 12.9602 13.456 12.9595 13.3018V10.8864H13.9564V13.3018C13.9564 13.761 13.8029 14.1442 13.4958 14.4512C13.1888 14.7583 12.8053 14.9121 12.3454 14.9128H1.61097Z" fill="white"/>
</svg>
