<svg width="16" height="17" viewBox="0 0 16 17" fill="none" xmlns="http://www.w3.org/2000/svg">
<path fill-rule="evenodd" clip-rule="evenodd" d="M5.482 4.84405C5.74215 4.55719 5.91343 4.20097 5.97503 3.81865C6.03664 3.43632 5.98592 3.04434 5.82904 2.69028C5.67216 2.33622 5.41587 2.03533 5.09128 1.82412C4.76668 1.61292 4.38776 1.50049 4.0005 1.50049C3.61324 1.50049 3.23432 1.61292 2.90972 1.82412C2.58513 2.03533 2.32884 2.33622 2.17196 2.69028C2.01508 3.04434 1.96436 3.43632 2.02597 3.81865C2.08757 4.20097 2.25885 4.55719 2.519 4.84405C2.439 4.88605 2.36233 4.93138 2.289 4.98005C1.832 5.28505 1.539 5.68405 1.356 6.05305C1.13788 6.49752 1.01654 6.98322 1 7.47805V9.50005C1 9.76527 1.10536 10.0196 1.29289 10.2072C1.48043 10.3947 1.73478 10.5 2 10.5H4.5C4.67505 10.1448 4.90599 9.82005 5.184 9.53805L5.171 9.50005H2V7.50005C2 7.50005 2 5.50005 4 5.50005C5.007 5.50005 5.507 6.00705 5.755 6.51005C5.98 6.25605 6.248 6.04005 6.548 5.87405C6.29572 5.43799 5.92647 5.08121 5.482 4.84405ZM4 4.50005C4.26522 4.50005 4.51957 4.39469 4.70711 4.20716C4.89464 4.01962 5 3.76527 5 3.50005C5 3.23483 4.89464 2.98048 4.70711 2.79294C4.51957 2.60541 4.26522 2.50005 4 2.50005C3.73478 2.50005 3.48043 2.60541 3.29289 2.79294C3.10536 2.98048 3 3.23483 3 3.50005C3 3.76527 3.10536 4.01962 3.29289 4.20716C3.48043 4.39469 3.73478 4.50005 4 4.50005ZM14 10.5H11.5C11.3249 10.1448 11.094 9.82005 10.816 9.53805L10.829 9.50005H14V7.50005C14 7.50005 14 5.50005 12 5.50005C10.993 5.50005 10.493 6.00705 10.245 6.51005C10.0188 6.25448 9.75059 6.0394 9.452 5.87405C9.70428 5.43799 10.0735 5.08121 10.518 4.84405C10.2578 4.55719 10.0866 4.20097 10.025 3.81865C9.96336 3.43632 10.0141 3.04434 10.171 2.69028C10.3278 2.33622 10.5841 2.03533 10.9087 1.82412C11.2333 1.61292 11.6122 1.50049 11.9995 1.50049C12.3868 1.50049 12.7657 1.61292 13.0903 1.82412C13.4149 2.03533 13.6712 2.33622 13.828 2.69028C13.9849 3.04434 14.0356 3.43632 13.974 3.81865C13.9124 4.20097 13.7412 4.55719 13.481 4.84405C13.561 4.88605 13.6377 4.93138 13.711 4.98005C14.168 5.28505 14.461 5.68405 14.644 6.05305C14.8589 6.48662 14.9802 6.96055 15 7.44405V9.50005C15 9.76527 14.8946 10.0196 14.7071 10.2072C14.5196 10.3947 14.2652 10.5 14 10.5ZM12 4.50005C12.2652 4.50005 12.5196 4.39469 12.7071 4.20716C12.8946 4.01962 13 3.76527 13 3.50005C13 3.23483 12.8946 2.98048 12.7071 2.79294C12.5196 2.60541 12.2652 2.50005 12 2.50005C11.7348 2.50005 11.4804 2.60541 11.2929 2.79294C11.1054 2.98048 11 3.23483 11 3.50005C11 3.76527 11.1054 4.01962 11.2929 4.20716C11.4804 4.39469 11.7348 4.50005 12 4.50005Z" fill="black"/>
<path fill-rule="evenodd" clip-rule="evenodd" d="M10 8.50001C10 9.01701 9.804 9.48901 9.482 9.84401C9.98587 10.1168 10.3923 10.5397 10.645 11.054C10.864 11.4974 10.985 11.9827 11 12.477V14.5C11 14.7652 10.8946 15.0196 10.7071 15.2071C10.5196 15.3947 10.2652 15.5 10 15.5H6C5.73478 15.5 5.48043 15.3947 5.29289 15.2071C5.10536 15.0196 5 14.7652 5 14.5V12.478C5.00048 12.433 5.00248 12.3879 5.006 12.343C5.03871 11.8945 5.15755 11.4565 5.356 11.053C5.6084 10.5389 6.0145 10.116 6.518 9.84301C6.29993 9.60238 6.14374 9.31226 6.06292 8.99773C5.98211 8.6832 5.97909 8.35373 6.05415 8.03778C6.1292 7.72182 6.28006 7.4289 6.49369 7.18432C6.70732 6.93973 6.97729 6.75085 7.28028 6.63399C7.58327 6.51712 7.91016 6.4758 8.2327 6.51358C8.55524 6.55137 8.86372 6.66712 9.1315 6.85085C9.39928 7.03457 9.61829 7.28074 9.76961 7.56807C9.92093 7.85541 10 8.17527 10 8.50001ZM6 12.5V14.5H10V12.5C10 12.5 10 10.5 8 10.5C6 10.5 6 12.5 6 12.5ZM9 8.50001C9 8.76523 8.89464 9.01958 8.70711 9.20712C8.51957 9.39465 8.26522 9.50001 8 9.50001C7.73478 9.50001 7.48043 9.39465 7.29289 9.20712C7.10536 9.01958 7 8.76523 7 8.50001C7 8.23479 7.10536 7.98044 7.29289 7.7929C7.48043 7.60537 7.73478 7.50001 8 7.50001C8.26522 7.50001 8.51957 7.60537 8.70711 7.7929C8.89464 7.98044 9 8.23479 9 8.50001Z" fill="black"/>
</svg>
