<svg width="16" height="17" viewBox="0 0 16 17" fill="none" xmlns="http://www.w3.org/2000/svg">
<g clip-path="url(#clip0_112_625)">
<path d="M11.5806 13.908L7.66729 12.8334L3.75195 13.908M7.66995 3.83337L8.33329 5.50004H9.99995L8.70395 6.68537L9.22195 8.50004L7.66662 7.33471L6.11129 8.50004L6.62929 6.68537L5.33329 5.50004H6.99995L7.66995 3.83337Z" stroke="black" stroke-miterlimit="10" stroke-linecap="round" stroke-linejoin="round"/>
<path d="M12.3023 12.344L14.9997 13.5L13.2217 14.278L13.9997 16.1667L10.9997 15.1667L12.9997 10.8333L7.66634 9.5L2.33301 10.8333L4.33301 15.1667L1.33301 16.1667L2.11101 14.278L0.333008 13.5L3.03367 12.352" stroke="black" stroke-miterlimit="10" stroke-linecap="round" stroke-linejoin="round"/>
<path d="M3.66602 10.5027V9.5L1.66602 7.5L3.66602 5.5V3.5H5.66602L7.66602 1.5L9.99935 3.5H11.666V5.5L13.666 7.5L11.666 9.5V10.5113" stroke="black" stroke-miterlimit="10" stroke-linecap="round" stroke-linejoin="round"/>
</g>
<defs>
<clipPath id="clip0_112_625">
<rect width="16" height="16" fill="white" transform="translate(0 0.5)"/>
</clipPath>
</defs>
</svg>
