<svg width="14" height="14" viewBox="0 0 14 14" fill="none" xmlns="http://www.w3.org/2000/svg">
<g clip-path="url(#clip0_216_728)">
<path d="M3.05292 5.23364C3.77553 5.23364 4.36133 4.64785 4.36133 3.92523C4.36133 3.20262 3.77553 2.61682 3.05292 2.61682C2.3303 2.61682 1.74451 3.20262 1.74451 3.92523C1.74451 4.64785 2.3303 5.23364 3.05292 5.23364Z" fill="#8612FF"/>
<path d="M3.05292 11.3396C3.77553 11.3396 4.36133 10.7538 4.36133 10.0312C4.36133 9.30854 3.77553 8.72274 3.05292 8.72274C2.3303 8.72274 1.74451 9.30854 1.74451 10.0312C1.74451 10.7538 2.3303 11.3396 3.05292 11.3396Z" fill="#8612FF"/>
<path d="M6.97815 9.59502H13.0841V10.4673H6.97815V9.59502ZM6.97815 3.4891H13.0841V4.36137H6.97815V3.4891Z" fill="#8612FF"/>
</g>
<defs>
<clipPath id="clip0_216_728">
<rect width="13.9564" height="13.9564" fill="white"/>
</clipPath>
</defs>
</svg>
