<svg width="32" height="32" viewBox="0 0 32 32" fill="none" xmlns="http://www.w3.org/2000/svg">
<path d="M13.7318 15.4112C13.0601 15.4112 12.4034 15.6104 11.8449 15.9836C11.2864 16.3568 10.8511 16.8872 10.5941 17.5078C10.337 18.1284 10.2697 18.8112 10.4008 19.47C10.5318 20.1289 10.8553 20.734 11.3303 21.209C11.8052 21.684 12.4104 22.0074 13.0692 22.1385C13.728 22.2695 14.4109 22.2023 15.0315 21.9452C15.6521 21.6881 16.1825 21.2528 16.5557 20.6943C16.9289 20.1358 17.1281 19.4792 17.1281 18.8075V9.79626C17.6537 12.0508 19.1675 13.6226 21.6644 13.6226" stroke="black" stroke-width="1.5" stroke-linecap="round" stroke-linejoin="round"/>
<path d="M5.69173 21.5791C5.82667 22.7799 6.36475 23.8995 7.21812 24.755C8.07149 25.6106 9.18971 26.1515 10.3902 26.2895C12.2163 26.4926 14.0885 26.6666 16 26.6666C17.9115 26.6666 19.7854 26.4926 21.6098 26.2878C22.8103 26.1498 23.9285 25.6088 24.7819 24.7533C25.6352 23.8978 26.1733 22.7782 26.3083 21.5774C26.5028 19.7632 26.6667 17.8995 26.6667 16C26.6667 14.1005 26.5028 12.2368 26.3083 10.4209C26.1733 9.22007 25.6352 8.10047 24.7819 7.24494C23.9285 6.3894 22.8103 5.84847 21.6098 5.71049C19.7837 5.5091 17.9115 5.33331 16 5.33331C14.0885 5.33331 12.2146 5.50739 10.3902 5.71219C9.18971 5.85018 8.07149 6.39111 7.21812 7.24665C6.36475 8.10218 5.82667 9.22177 5.69173 10.4226C5.49717 12.2351 5.33333 14.0988 5.33333 16C5.33333 17.9012 5.49717 19.7632 5.69173 21.5791Z" stroke="black" stroke-width="1.5" stroke-linecap="round" stroke-linejoin="round"/>
</svg>
