<svg width="24" height="24" viewBox="0 0 24 24" fill="none" xmlns="http://www.w3.org/2000/svg">
<path d="M14.2428 5.24982C12.9332 5.45932 12.0316 5.34763 11.0771 5.80226H10.2371C10.2478 5.81257 10.2587 5.82238 10.2693 5.83288C10.5704 6.13391 10.834 6.53038 11.0623 7.00304L11.1096 6.9841C12.164 7.4676 12.6391 8.31229 13.0455 9.17713C12.4622 8.62788 11.9276 7.97485 11.2927 7.53588C11.6744 8.52213 11.9278 9.75807 12.0057 11.1231L12.011 11.1053L12.5377 13.4977L12.0237 12.5123C11.9733 14.1438 11.6744 15.6139 11.2036 16.7268C10.9447 17.3386 10.6345 17.844 10.2693 18.2091C10.2587 18.2197 10.2478 18.2294 10.2371 18.2398H13.3236C12.6056 18.4562 11.7315 18.55 11.0014 18.7433C12.2007 18.7673 13.6613 18.7578 14.73 18.2398H15C15.2899 18.2398 15.5788 18.104 15.8716 17.8113C16.1644 17.5186 16.4467 17.0722 16.6856 16.5077C17.1271 15.464 17.4214 14.0221 17.4634 12.4177C17.6638 12.6612 17.8276 12.9503 17.9813 13.2733C17.879 14.5428 17.6229 15.6868 17.2537 16.604V17.9137L16.9323 17.2925C16.7354 17.6545 16.5148 17.9637 16.2693 18.2091C16.2587 18.2197 16.2478 18.2294 16.2371 18.2398H17C17.2899 18.2398 17.5788 18.104 17.8716 17.8113C18.0825 17.6004 18.288 17.3093 18.4757 16.9522L18.5883 17.7741L19.0907 15.2743C19.143 15.0665 19.1903 14.85 19.2327 14.6269L18.5514 15.3852L19.3523 13.8726C19.4275 13.2875 19.4688 12.6657 19.4688 12.021C19.4688 10.5972 19.2694 9.28316 18.9409 8.23541C19.0928 8.42897 19.2416 8.64088 19.3953 8.86585C19.2039 8.00372 18.7667 7.29772 18.2506 6.70585C18.1282 6.51954 18.0009 6.36004 17.8716 6.23072C17.5788 5.93804 17.2899 5.80229 17 5.80229H16.2371C16.2478 5.8126 16.2587 5.82235 16.2693 5.83291C16.6345 6.19804 16.9447 6.70341 17.2036 7.31519C17.7213 8.53879 18.0312 10.1939 18.0312 12.021C18.0312 12.2099 18.0278 12.3968 18.0212 12.5818C17.8812 12.1403 17.6815 11.7313 17.4539 11.3527C17.3876 9.85741 17.102 8.51879 16.6856 7.53438C16.4467 6.96985 16.1643 6.52338 15.8716 6.23069C15.5789 5.93801 15.2899 5.80226 15 5.80226H12.5081C13.0414 5.62529 13.7669 5.50747 14.2429 5.24976L14.2428 5.24982ZM7 5.80222C6.71012 5.80222 6.42119 5.93804 6.12844 6.23072C5.83563 6.52341 5.55328 6.96988 5.31447 7.53438C5.18947 7.82985 5.07634 8.15757 4.97728 8.51157C4.85672 7.99388 4.87703 7.50701 4.85353 6.87932C4.55916 8.11032 4.59322 9.13251 4.62775 10.3307C4.56519 10.8684 4.53125 11.4353 4.53125 12.021C4.53125 13.7838 4.83681 15.3787 5.31447 16.5076C5.36149 16.6188 5.41183 16.7286 5.46541 16.8369C5.19209 16.4989 4.97391 16.1216 4.70613 15.7798C5.10319 16.3972 5.36541 17.125 5.93894 17.598C6.00138 17.676 6.06463 17.7475 6.12841 17.8113C6.42116 18.104 6.71009 18.2397 6.99997 18.2397C7.28984 18.2397 7.57878 18.104 7.87153 17.8113C8.16434 17.5186 8.44669 17.0721 8.6855 16.5076C8.75716 16.3383 8.82487 16.1583 8.88831 15.9689C8.51269 16.2584 8.03784 16.6143 7.97256 16.6143C7.88587 16.6143 8.7335 15.6424 9.10359 15.2224C9.25766 14.5969 9.36903 13.8995 9.42578 13.1558C9.40034 13.1285 9.37429 13.1017 9.34766 13.0754L9.43125 13.0794C9.45626 12.7272 9.46877 12.3741 9.46875 12.021C9.46875 11.8786 9.46656 11.7373 9.46266 11.5972C9.57994 11.9312 9.69944 12.2987 9.82622 12.7364C9.71613 11.798 9.57322 10.7181 9.33272 10.022C9.19916 9.06682 8.97375 8.21572 8.68553 7.53438C8.44669 6.96985 8.16428 6.52338 7.87156 6.23069C7.57884 5.93801 7.28988 5.80226 7 5.80226V5.80222ZM8.23712 5.80222C8.24775 5.81254 8.25869 5.82235 8.26931 5.83285C8.63453 6.19804 8.94472 6.70341 9.20356 7.31519C9.72125 8.53879 10.0312 10.1939 10.0312 12.021C10.0312 12.4349 10.0152 12.8397 9.98456 13.2329C10.6432 14.0737 10.7189 14.9904 10.7304 15.8979C10.4553 15.2262 10.2516 14.4935 9.92103 13.8692C9.78797 14.9562 9.53959 15.9325 9.20353 16.7268C8.94472 17.3386 8.63453 17.844 8.26928 18.2091C8.25872 18.2197 8.24778 18.2294 8.23709 18.2398H9C9.28988 18.2398 9.57881 18.104 9.87156 17.8113C10.1644 17.5186 10.4467 17.0722 10.6856 16.5077C11.1631 15.3787 11.4688 13.7838 11.4688 12.021C11.4688 11.1828 11.3996 10.3829 11.2758 9.65272C11.411 9.82919 11.5444 10.0196 11.6818 10.2207C11.5665 9.7011 11.3618 9.23832 11.1045 8.82285C10.9878 8.34816 10.8465 7.91472 10.6856 7.53441C10.4467 6.96988 10.1643 6.52341 9.87159 6.23072C9.57888 5.93804 9.28991 5.80229 9.00003 5.80229H8.23716L8.23712 5.80222ZM14.7764 6.25488C15.5654 6.78019 15.8471 7.54447 16.0713 8.31801C15.5336 7.61426 15.0868 6.76488 14.3594 6.36463L14.7764 6.25488ZM7.63238 6.68285L7.39019 7.51035C7.47403 7.56322 7.55681 7.64201 7.63716 7.74785C8.39159 8.74191 8.69384 11.583 8.37716 13.8702C8.00878 16.5308 6.98653 17.5902 6.16603 16.4337C5.79941 15.917 5.50397 15.0177 5.31809 13.9231C5.5135 14.3495 5.78578 14.764 5.95053 14.8338C6.05428 15.1126 6.17028 15.3466 6.29584 15.5235C6.96022 16.46 7.792 15.5978 8.08634 13.4719C8.335 11.676 8.09659 9.43482 7.51463 8.66807C7.03713 8.03901 6.44337 8.67619 6.25006 10.2098C6.09797 11.4164 6.2645 12.9114 6.65709 13.3609C6.94647 13.6923 7.30419 13.2838 7.39709 12.352C7.42753 12.0471 7.41897 11.6812 7.37678 11.3957C7.3345 11.1103 7.26753 10.913 7.16916 10.8436C7.12222 10.8105 7.05209 10.8414 7.00734 10.9202C6.96266 10.9991 6.94537 11.0684 6.94444 11.2066L6.62734 11.1851C6.63087 10.6723 6.73359 10.2593 6.85219 10.0501C6.97084 9.84088 7.1075 9.77782 7.23863 9.87029C7.43925 10.0118 7.5875 10.4561 7.66425 10.9748C7.73131 11.428 7.75063 11.9439 7.71738 12.4381L7.71038 12.4405C7.71194 12.4558 7.71288 12.471 7.71381 12.4861C7.70978 12.541 7.70509 12.5958 7.69975 12.6506C7.69313 12.7165 7.68553 12.7802 7.6775 12.8428C7.557 13.2883 7.17344 13.6472 6.79381 13.9715C6.99491 14.0246 7.28913 13.8018 7.55231 13.5034C7.31644 14.3952 6.90019 14.7011 6.54856 14.2984C5.97491 13.6415 5.74088 11.5422 5.95512 9.84216C6.12481 8.49591 6.51169 7.6681 6.93513 7.47388L7.63225 6.68294L7.63238 6.68285ZM5.46619 12.3957C5.5225 13.0828 5.62812 13.7223 5.77106 14.262C5.455 13.9182 5.30844 13.4944 5.20156 13.0816C5.18578 12.9378 5.17119 12.7926 5.15906 12.6447L5.46619 12.3956V12.3957ZM15.0344 12.963H15.4379C15.1387 13.7013 14.4694 14.3887 13.7152 14.903C14.2014 14.2679 14.8493 13.6733 15.0344 12.963ZM15.7056 16.3583L15.8088 16.7769C15.2713 17.5577 14.5027 17.8274 13.7258 18.0396C14.4378 17.5128 15.2941 17.0794 15.7056 16.3583L15.7056 16.3583Z" fill="white"/>
</svg>
