<svg width="16" height="17" viewBox="0 0 16 17" fill="none" xmlns="http://www.w3.org/2000/svg">
<path d="M12.3467 4.65329C12.5413 5.76396 11.6667 6.49996 11.6667 6.49996C11.6667 6.49996 10.598 6.12463 10.4033 5.01329C10.2087 3.90263 11.0833 3.16663 11.0833 3.16663C11.0833 3.16663 12.152 3.54196 12.3467 4.65329ZM13.9513 9.55929C13.0547 10.312 11.958 9.89263 11.958 9.89263C11.958 9.89263 11.758 8.72063 12.654 7.96796C13.55 7.21529 14.6473 7.63463 14.6473 7.63463C14.6473 7.63463 14.8473 8.80663 13.9513 9.55929ZM11.156 13.7173C10.156 13.334 10 12.2573 10 12.2573C10 12.2573 10.8447 11.5653 11.8447 11.9493C12.8447 12.3326 13 13.4093 13 13.4093C13 13.4093 12.156 14.1013 11.156 13.7173Z" stroke="black" stroke-linecap="round" stroke-linejoin="round"/>
<path d="M10.0004 12.258C10.937 11.4573 12.0004 9.87129 12.0004 8.31796C12.0004 7.67529 11.8977 7.06129 11.7097 6.49996M3.6537 4.65329C3.45904 5.76396 4.3337 6.49996 4.3337 6.49996C4.3337 6.49996 5.40237 6.12463 5.59704 5.01329C5.7917 3.90263 4.91704 3.16663 4.91704 3.16663C4.91704 3.16663 3.84837 3.54196 3.6537 4.65329ZM2.04904 9.55929C2.9457 10.312 4.04237 9.89263 4.04237 9.89263C4.04237 9.89263 4.24237 8.72063 3.34637 7.96796C2.45037 7.21529 1.35304 7.63463 1.35304 7.63463C1.35304 7.63463 1.15304 8.80663 2.04904 9.55929ZM4.84504 13.7173C5.84504 13.334 6.00037 12.2573 6.00037 12.2573C6.00037 12.2573 5.1557 11.5653 4.1557 11.9493C3.1557 12.3326 3.00037 13.4093 3.00037 13.4093C3.00037 13.4093 3.84504 14.1013 4.84504 13.7173Z" stroke="black" stroke-linecap="round" stroke-linejoin="round"/>
<path d="M6 12.258C5.06333 11.4573 4 9.87133 4 8.318C4 7.67533 4.10267 7.06133 4.29067 6.5" stroke="black" stroke-linecap="round" stroke-linejoin="round"/>
</svg>
