<svg width="32" height="32" viewBox="0 0 32 32" fill="none" xmlns="http://www.w3.org/2000/svg">
<path d="M16.549 26.6666C18.8204 26.6666 20.9976 26.442 23.0155 26.0304C25.5378 25.5159 26.7978 25.2599 27.9472 23.7816C29.098 22.3021 29.098 20.6042 29.098 17.2085V14.7915C29.098 11.3958 29.098 9.69664 27.9472 8.21837C26.7978 6.7401 25.5378 6.48285 23.0155 5.96959C20.8865 5.54287 18.7203 5.32974 16.549 5.33336C14.2776 5.33336 12.1004 5.55799 10.0825 5.96959C7.56015 6.4841 6.30023 6.7401 5.15074 8.21837C4 9.6979 4 11.3958 4 14.7915V17.2085C4 20.6042 4 22.3034 5.15074 23.7816C6.30023 25.2599 7.56015 25.5172 10.0825 26.0304C12.1004 26.442 14.2776 26.6666 16.549 26.6666Z" stroke="black" stroke-width="1.5" stroke-linecap="round" stroke-linejoin="round"/>
<path d="M21.5209 16.3928C21.3352 17.1533 20.3438 17.6979 18.3623 18.7909C16.2064 19.9793 15.1285 20.5729 14.2563 20.3433C13.9656 20.2682 13.6941 20.1326 13.4594 19.9454C12.7843 19.3996 12.7843 18.2664 12.7843 16C12.7843 13.7337 12.7843 12.6005 13.4594 12.0546C13.6878 11.8702 13.9614 11.7334 14.2563 11.6568C15.1285 11.4272 16.2064 12.0208 18.3623 13.2092C20.3451 14.3009 21.3352 14.8468 21.5209 15.6073C21.5837 15.8658 21.5837 16.1343 21.5209 16.3928Z" stroke="black" stroke-width="1.5" stroke-linecap="round" stroke-linejoin="round"/>
</svg>
